<?xml version="1.0" encoding="UTF-8" standalone="no"?>
<svg xmlns="http://www.w3.org/2000/svg" width="24" height="24" viewBox="0 0 24 24">
    <g id="chemistry-flask">
        <path id="flask" d="M9.5 6a.5.5 0 1 0 0 1h.5v2.36l-3.61 5.876c-.38.614-.37 1.338-.046 1.875.324.538.943.89 1.656.89h9c.713 0 1.33-.352 1.654-.89.324-.535.335-1.257-.043-1.872L15 9.358V7h.5a.5.5 0 1 0 0-1h-1a.5.5 0 0 0-.5.5v3a.5.5 0 0 0 .074.262l3.686 6c.202.33.174.606.037.834-.137.227-.402.404-.797.404H8c-.395 0-.66-.178-.8-.406-.136-.228-.165-.503.038-.83a.5.5 0 0 0 .002-.002l3.686-6A.5.5 0 0 0 11 9.5v-3a.5.5 0 0 0-.5-.5z" />
        <path id="liquid" d="M10.568 12.254L8.268 16h8.464l-1.67-2.72c-1.296.227-2.944-.89-4.494-1.026zm.924 1.223a1 1 0 0 1 1 1 1 1 0 0 1-1 1 1 1 0 0 1-1.002-1 1 1 0 0 1 1.002-1z" />
        <circle id="bubble1" cx="12.866" cy="4.359" r="1.021" />
        <circle id="bubble2" cx="12.325" cy="7.585" r=".787" />
        <circle id="bubble3" cx="13.071" cy="11.155" r="1.095" />
    </g>
</svg>
